<?xml version="1.0" encoding="UTF-8" standalone="no"?>
<!DOCTYPE svg PUBLIC "-//W3C//DTD SVG 1.1//EN" "http://www.w3.org/Graphics/SVG/1.1/DTD/svg11.dtd">
<svg width="100%" height="100%" viewBox="0 0 400 400" version="1.1" xmlns="http://www.w3.org/2000/svg" xmlns:xlink="http://www.w3.org/1999/xlink" xml:space="preserve" xmlns:serif="http://www.serif.com/" style="fill-rule:evenodd;clip-rule:evenodd;">
    <g transform="matrix(0.980779,0,0,0.980779,3.84425,3.84425)">
        <g transform="matrix(1.03628,0,0,1.06917,-14.5124,-27.6688)">
            <ellipse cx="207.002" cy="212.939" rx="192.998" ry="187.061" style="fill:rgb(255,198,0);"/>
            <path d="M207.002,25.879C313.521,25.879 400,109.698 400,212.939C400,316.181 313.521,400 207.002,400C100.484,400 14.004,316.181 14.004,212.939C14.004,109.698 100.484,25.879 207.002,25.879ZM207.002,37.799C107.272,37.799 26.303,116.277 26.303,212.939C26.303,309.602 107.272,388.08 207.002,388.08C306.733,388.08 387.701,309.602 387.701,212.939C387.701,116.277 306.733,37.799 207.002,37.799Z"/>
        </g>
        <g id="Red" transform="matrix(0.999407,0,0,0.999407,94.6988,-73.4645)">
            <path d="M-63.452,381.077C-62.186,379.5 -60.81,378.02 -59.203,376.742C-51.82,370.588 -44.13,364.687 -35.667,360.077C-27.882,356.342 -19.696,353.411 -11.336,351.252C3.304,348.187 18.196,346.359 33.112,345.295C38.131,344.76 43.371,344.87 48.122,342.947C50.919,341.86 51.526,338.204 50.265,335.753C48.004,331.199 44.009,327.866 41.054,323.793C36.083,317.001 31.3,310.019 27.62,302.424C21.907,291.148 18.929,278.77 16.085,266.533C13.776,256.983 13.807,247.11 12.964,237.379C12.87,222.771 12.602,208.147 13.595,193.57C14.304,180.348 15.052,166.937 18.945,154.196C22.065,143.661 25.792,133.087 32.434,124.207C37.469,116.627 44.71,110.891 52.251,105.982C63.534,99.608 76.378,96.976 88.898,94.171C101.789,93.273 114.782,92.114 127.688,93.375C142.061,94.51 156.488,97.126 169.796,102.854C182.513,107.834 193.206,116.982 201.621,127.595C206.498,134.419 210.115,142.086 213.062,149.918C214.015,156.135 215.631,162.225 216.608,168.442C219.35,185.501 218.373,202.82 218.538,220.021C218.626,230.304 218.337,240.597 217.51,250.845C217.076,256.216 216.494,261.574 215.741,266.911C213.7,281.275 208.807,295.159 201.818,307.853C199.525,311.643 196.901,315.236 194.939,319.222C192.15,322.894 188.919,326.212 186.248,329.986C182.962,334.516 178.455,338.046 175.509,342.837C173.578,345.713 173.885,349.984 176.407,352.426C179.464,355.476 183.648,356.941 187.596,358.462C196.594,361.527 205.836,363.765 215.126,365.75C229.601,369.233 243.366,375.269 256.146,382.849C259.668,385.887 263.14,388.982 266.755,391.911C230.32,441.52 171.576,473.745 105.364,473.745C34.447,473.745 -27.904,436.777 -63.452,381.077Z" style="fill:rgb(230,53,36);stroke:rgb(230,53,36);stroke-width:0.09px;"/>
        </g>
        <g transform="matrix(0.787473,0,0,0.787473,-51.8709,-94.5331)">
            <path d="M276.74,374.17C278.25,371.53 280.32,369.11 283.02,367.65C287.32,367 291.74,367.13 296.05,367.66C305.31,369.61 314.6,371.55 324.02,372.46C340.28,374.56 356.74,373.54 373.1,373.57C375.15,373.55 377.15,374.01 379.15,374.46C378.49,374.49 377.16,374.56 376.5,374.6C379.79,378.81 383.57,383.32 383.7,388.96C384.18,394.32 382.78,400 378.91,403.9C372.47,410.75 362.81,412.77 353.9,414.09C336.86,415.56 319.48,414.72 302.9,410.34C294.41,407.97 285.29,404.12 280.97,395.9C276.91,389.45 275.93,381.63 276.74,374.17M285.94,385.95C283.17,387.8 284.54,391.57 286.51,393.47C289.15,396.53 293.47,396.5 297.16,396.75C300.67,397.83 304.31,397.28 307.75,396.26C308.8,394.15 311.37,391.84 309.78,389.38C308.56,385.97 304.83,384.93 301.84,383.68C296.59,383.49 290.42,382.51 285.94,385.95Z" style="fill:rgb(254,254,252);fill-rule:nonzero;stroke:rgb(254,254,252);stroke-width:6.86px;"/>
        </g>
        <g transform="matrix(0.787473,0,0,0.787473,-51.8709,-94.5331)">
            <path d="M122.328,518.823C120.242,520.879 108.95,506.511 110.99,504.89C120.36,497.08 130.12,489.59 140.86,483.74C150.74,479 161.13,475.28 171.74,472.54C190.32,468.65 209.22,466.33 228.15,464.98C234.52,464.3 241.17,464.44 247.2,462C250.75,460.62 251.52,455.98 249.92,452.87C247.05,447.09 241.98,442.86 238.23,437.69C231.92,429.07 225.85,420.21 221.18,410.57C213.93,396.26 210.15,380.55 206.54,365.02C203.61,352.9 203.65,340.37 202.58,328.02C202.46,309.48 202.12,290.92 203.38,272.42C204.28,255.64 205.23,238.62 210.17,222.45C214.13,209.08 218.86,195.66 227.29,184.39C233.68,174.77 242.87,167.49 252.44,161.26C266.76,153.17 283.06,149.83 298.95,146.27C315.31,145.13 331.8,143.66 348.18,145.26C366.42,146.7 384.73,150.02 401.62,157.29C417.76,163.61 431.33,175.22 442.01,188.69C448.2,197.35 452.79,207.08 456.53,217.02C457.74,224.91 459.79,232.64 461.03,240.53C464.51,262.18 463.27,284.16 463.48,305.99C463.592,319.041 463.225,332.104 462.175,345.11C461.624,351.926 460.886,358.726 459.93,365.5C457.34,383.73 451.13,401.35 442.26,417.46C439.35,422.27 436.02,426.83 433.53,431.89C429.99,436.55 425.89,440.76 422.5,445.55C418.33,451.3 412.61,455.78 408.87,461.86C406.42,465.51 406.81,470.93 410.01,474.03C413.89,477.9 419.2,479.76 424.21,481.69C435.63,485.58 447.36,488.42 459.15,490.94C477.52,495.36 494.99,503.02 511.21,512.64C514.438,515.425 517.632,518.247 520.886,521C522.138,522.059 508.815,536.279 506.913,534.76C497.7,527.403 487.073,521.721 476.37,516.92C461.24,509.87 444.8,506.59 428.67,502.72C417.66,500.17 406.84,496.08 397.56,489.52C390.09,484.33 385.7,475.03 386.39,465.97C386.67,459.6 390.18,453.94 394.01,449.06C402.58,438.96 411.75,429.29 419.15,418.26C427.02,407.26 432.77,394.83 436.39,381.81C443.08,360.55 443.6,338.07 445.18,316.03C445.41,304.02 445.08,292.01 445.25,280C445.45,273.01 444.65,266.06 444.27,259.09C443.6,249.48 441.15,240.14 438.77,230.84C434.84,214.11 425.58,198.68 412.9,187.12C398.33,174.15 379.18,168.44 360.61,164C345.92,161.32 330.92,161.26 316.04,161.73C305.64,162.58 295.17,163.58 285.12,166.53C272.25,170.12 260.08,176.35 249.77,184.85C244.11,190.55 239.41,197.24 235.57,204.29C229.06,218.07 224.19,232.77 222.52,247.98C221.74,255.97 220.5,263.94 220.5,271.99C220.12,283.34 218.35,294.62 218.7,306C218.6,317.74 218.59,329.52 220.52,341.15C223.1,356.01 223.79,371.46 229.84,385.48C232.77,392.22 234.8,399.36 238.41,405.8C240.73,410.03 243.45,414.02 246.14,418.03C251.52,426.18 258.92,432.84 263.85,441.31C267.58,447.74 268.46,455.51 267.3,462.78C265.73,470.44 259.22,476.6 251.58,478.07C240.81,480.33 229.77,480.9 218.89,482.44C203.75,484.31 188.67,486.76 173.81,490.26C160.45,493.21 147.97,499.28 136.55,506.71C131.556,510.411 126.766,514.446 122.328,518.823ZM370.24,284.9C374,283.94 378.04,284.01 381.84,284.75C389.14,288.05 392.6,297.31 389.96,304.74C387.74,308.28 384.57,311.4 380.75,313.16C376.16,314.16 370.69,314.43 366.81,311.29C363.61,308.73 361.07,305.06 360.43,300.97C359.82,297.26 361.83,293.88 363.78,290.91C365.45,288.48 367.42,286.02 370.24,284.9ZM283.5,354.85C287.25,354.39 290.98,355.27 294.67,355.83C309.69,358.5 324.71,361.52 339.96,362.47C352.63,362.84 365.32,362.13 377.98,362.63C385.81,363.68 393.6,368.69 396.36,376.34C400.44,386.8 400.18,399.41 393.66,408.85C389.69,415.92 382.16,419.72 374.88,422.5C363.79,426.82 351.73,427.02 340.05,428.23C330.33,428.4 320.68,426.86 311.11,425.32C299.77,423.55 288.16,420.83 278.48,414.38C269.22,408.4 264.14,397.62 262.64,386.97C262.31,379.79 261.73,371.98 265.82,365.65C269.25,359.14 276.39,355.58 283.5,354.85ZM276.74,374.17C273.46,383.91 277.68,394.46 284.12,401.88C294.13,410.45 307.58,413.04 320.29,414.59C330.44,416.12 340.74,415.87 350.97,415.58C355.78,415.37 360.62,414.62 365.11,412.84C373.5,411.72 381.42,406.57 385.3,398.96C386.09,393.72 386.09,388.29 385.42,383.03C384.01,379.73 381.44,377.15 379.15,374.46C377.15,374.01 375.15,373.55 373.1,373.57C356.74,373.54 340.28,374.56 324.02,372.46C314.6,371.55 305.31,369.61 296.05,367.66C291.74,367.13 287.32,367 283.02,367.65C280.32,369.11 278.25,371.53 276.74,374.17ZM288.03,386.1C291.98,383.2 297.21,383.75 301.84,383.68C304.27,385.18 306.86,386.69 308.56,389.06C308.81,391.48 308.22,393.89 307.75,396.26C304.31,397.28 300.67,397.83 297.16,396.75C293.78,395.92 289.6,395.53 287.61,392.26C286.28,390.42 285.92,387.53 288.03,386.1ZM283.22,283.8C292.02,280.82 302.66,287.39 302.65,296.96C303.62,303.14 299.13,308.38 294.21,311.4C291.61,313 288.42,312.84 285.5,312.76C279.94,312.69 275.32,308.49 272.99,303.73C270.24,295.77 275.22,286.28 283.22,283.8Z" style="stroke:black;stroke-width:0.09px;"/>
        </g>
        <g transform="matrix(1.03628,0,0,1.06917,-14.5124,-27.6688)">
            <path d="M207.002,25.879C313.521,25.879 400,109.698 400,212.939C400,316.181 313.521,400 207.002,400C100.484,400 14.004,316.181 14.004,212.939C14.004,109.698 100.484,25.879 207.002,25.879ZM207.002,37.799C107.272,37.799 26.303,116.277 26.303,212.939C26.303,309.602 107.272,388.08 207.002,388.08C306.733,388.08 387.701,309.602 387.701,212.939C387.701,116.277 306.733,37.799 207.002,37.799Z"/>
        </g>
    </g>
</svg>
